<?xml version="1.0" encoding="iso-8859-1"?>
<!-- Uploaded to: SVG Repo, www.svgrepo.com, Generator: SVG Repo Mixer Tools -->
<!DOCTYPE svg PUBLIC "-//W3C//DTD SVG 1.1//EN" "http://www.w3.org/Graphics/SVG/1.1/DTD/svg11.dtd">
<svg fill="#00838F" version="1.1" id="Capa_1" xmlns="http://www.w3.org/2000/svg" xmlns:xlink="http://www.w3.org/1999/xlink" 
	 width="800px" height="800px" viewBox="0 0 432.144 432.143"
	 xml:space="preserve">
<g>
	<g>
		<g>
			<path d="M418.6,353.192l-75.125-75.125c-8.295-8.29-18.948-12.765-29.8-13.443l-25.518-25.52
				c37.908-60.272,30.656-141.03-21.773-193.459c-60.858-60.86-159.882-60.858-220.74,0
				c-60.859,60.858-60.859,159.882,0.002,220.738c52.428,52.435,133.186,59.688,193.461,21.772l25.514,25.519
				c0.684,10.852,5.154,21.506,13.445,29.795l75.127,75.128c18.061,18.063,47.342,18.062,65.405-0.002
				C436.656,400.539,436.66,371.254,418.6,353.192z M245.861,219.204c-2.193-9.704-5.543-17.818-10.811-19.913l-44.955-17.923
				l-10.527-8.87c-2.779-2.35-6.887-2.177-9.465,0.388l-14.637,14.554l-14.676-14.559c-2.582-2.56-6.682-2.726-9.461-0.383
				l-10.525,8.87l-44.957,17.926c-5.043,2.008-8.326,9.54-10.518,18.7C36.09,175.248,40.424,116.27,78.346,78.347
				c42.822-42.826,112.506-42.826,155.332,0.004C271.963,116.63,276.021,176.367,245.861,219.204z"/>
			<path d="M155.631,61.124v-0.01c-0.043,0-0.076,0.006-0.125,0.006v-0.006c-0.014,0-0.037,0-0.051,0.006
				c-0.023-0.006-0.045-0.006-0.061-0.006v0.006c-0.047,0-0.08-0.006-0.121-0.006v0.01c-27.947,0.746-45.104,16.564-44.822,44.236
				c0.426,39.886,17.229,64.082,44.865,63.658v0.008c0.023,0,0.049,0,0.072,0c0.014,0,0.025,0,0.049,0c0,0,0.006,0,0.018,0h0.012
				c0.016,0,0.033,0,0.033,0c0.033,0,0.057,0,0.08,0v-0.008c27.637,0.424,44.443-23.772,44.871-63.658
				C200.736,77.688,183.578,61.87,155.631,61.124z"/>
		</g>
	</g>
</g>
</svg>