<?xml version="1.0" encoding="iso-8859-1"?>
<!-- Uploaded to: SVG Repo, www.svgrepo.com, Generator: SVG Repo Mixer Tools -->
<!DOCTYPE svg PUBLIC "-//W3C//DTD SVG 1.1//EN" "http://www.w3.org/Graphics/SVG/1.1/DTD/svg11.dtd">
<svg fill="#00838F" height="800px" width="800px" version="1.1" id="Capa_1" xmlns="http://www.w3.org/2000/svg" xmlns:xlink="http://www.w3.org/1999/xlink" 
	 viewBox="0 0 264 264" xml:space="preserve">
<path d="M240.748,0h-22.939c-4.143,0-7.915,3.313-7.915,7.456c0,24.406-19.894,44.543-45.894,47.421V40.602
	c0-4.143-2.529-7.602-6.672-7.602h-50.5C102.686,33,99,36.459,99,40.602V50H62.553c-11.179,0-20.535,7-22.723,18h-0.404
	C26.739,68,16,78.323,16,91.01v15.973C16,119.669,26.739,130,39.426,130h0.403c2.186,11,11.544,18,22.724,18H82v90.816
	C82,252.751,93.783,264,107.719,264h15.631c13.935,0,24.65-11.249,24.65-25.184V165h9.328c4.143,0,6.672-3.467,6.672-7.609v-14.273
	c26,2.878,45.894,23.018,45.894,47.424c0,4.143,3.772,7.459,7.915,7.459h22.939c4.143,0,7.252-3.275,7.252-7.418V7.412
	C248,3.27,244.891,0,240.748,0z M31,106.982V91.01c0-4.389,4-7.96,8-8.004v31.98C35,114.942,31,111.371,31,106.982z M123.35,249
	h-15.631C102.054,249,97,244.48,97,238.816v-67.015l36,20.459v46.556C133,244.48,129.014,249,123.35,249z M149,150h-35V48h35V150z"
	/>
</svg>